<svg
    width="20"
    height="20"
    viewBox="0 0 20 20"
    fill="white"
    skroke="white"
    xmlns="http://www.w3.org/2000/svg"
>
    <g id="mail">
        <path
            id="Vector"
            d="M18.125 3.125H1.875C1.5293 3.125 1.25 3.4043 1.25 3.75V16.25C1.25 16.5957 1.5293 16.875 1.875 16.875H18.125C18.4707 
            16.875 18.75 16.5957 18.75 16.25V3.75C18.75 3.4043 18.4707 3.125 18.125 3.125ZM16.5469 5.25195L10.3848 10.0469C10.2324 
            10.166 10.0195 10.166 9.86719 10.0469L3.70312 5.25195C3.67989 5.23402 3.66285 5.20927 3.65438 5.18116C3.64592 5.15306 3.64647 
            5.12301 3.65594 5.09523C3.66542 5.06745 3.68335 5.04333 3.70722 5.02625C3.73109 5.00918 3.75971 5 3.78906 5H16.4609C16.4903 5 16.5189 
            5.00918 16.5428 5.02625C16.5667 5.04333 16.5846 5.06745 16.5941 5.09523C16.6035 5.12301 16.6041 5.15306 16.5956 5.18116C16.5872 5.20927 
            16.5701 5.23402 16.5469 5.25195Z"
        />
    </g>

    <g id="download">
        <path
            d="M10 12.5L13.3333 9.16667M10 12.5V2.5V12.5ZM10 12.5L6.66667 9.16667L10 12.5Z"
            stroke-width="2"
            stroke-linecap="round"
            stroke-linejoin="round"
        />
        <path
            d="M1.66667 14.1667L2.18417 16.2376C2.2743 16.5981 2.48236 16.9182 2.77528 17.147C3.0682 17.3757 3.42918 17.5 3.80084 
            17.5001H16.1992C16.5708 17.5 16.9318 17.3757 17.2247 17.147C17.5177 16.9182 17.7257 16.5981 17.8158 16.2376L18.3333 14.1667"
            stroke-width="2"
            stroke-linecap="round"
            stroke-linejoin="round"
        />
    </g>

    <g id="arrow">
        <path
            d="M1 10H21"
            stroke-width="2"
            stroke-linecap="round"
            stroke-linejoin="round"
        />
        <path
            d="M12.25 1.25L21 10L12.25 18.75"
            stroke-width="2"
            stroke-linecap="round"
            stroke-linejoin="round"
        />
    </g>

    <g id="tel">
        <path
            d="M13.858 16.0729L16.417 13.8675C16.5009 13.7914 16.6018 13.7339 16.7124 13.6992C16.8229 13.6645 16.9403 13.6535 17.056 13.667L17.482 
            13.8675L23.444 16.473C23.87 16.6735 23.87 16.874 23.87 17.275C23.8565 17.9527 23.6992 18.621 23.4072 19.2406C23.1153 19.8602 22.6946 
            20.4186 22.17 20.8829C21.5776 21.4196 20.8761 21.8379 20.1076 22.1129C19.3391 22.3879 18.5195 22.5138 17.698 22.4831C15.6199 22.4715 
            13.5752 21.9902 11.736 21.0797C9.56765 19.9977 7.56034 18.6514 5.766 17.0754C4.5807 15.6861 3.51277 14.2117 2.572 12.6655C1.72691 11.2568 
            1.01452 9.78121 0.442996 8.25554C0.0912664 7.01498 -0.0524657 5.73033 0.0169965 4.44802C0.157232 3.32092 0.680145 2.26651 1.508 1.44155C2.64648 
            0.552618 4.07395 0.0573397 5.553 0.0380859C5.71778 0.0409482 5.8798 0.0784389 6.02721 0.147817C6.17462 0.217195 6.30369 0.316706 6.405 
            0.439075L9.599 6.05104C9.62133 6.20308 9.69617 6.34399 9.812 6.45203C9.82635 6.56089 9.81467 6.6714 9.77782 6.77546C9.74097 6.87953 
            9.67987 6.97453 9.599 7.05351L6.831 9.45851C6.72459 9.60648 6.66773 9.78106 6.66773 9.95974C6.66773 10.1384 6.72459 10.313 6.831 10.461C7.56107 
            11.6112 8.41743 12.6861 9.386 13.668C10.4243 14.6436 11.5659 15.5166 12.793 16.2734C13.217 16.4739 13.645 16.4739 13.858 16.0729Z" />
    </g>
</svg>
