<svg
    width="100"
    height="100"
    viewBox="0 0 100 100"
    fill="none"
    xmlns="http://www.w3.org/2000/svg"
    xmlns:xlink="http://www.w3.org/1999/xlink"
>
    <!--Skills-->
    <g id="code">
        <path
            fill-rule="evenodd"
            clip-rule="evenodd"
            d="M18.3125 42.0645L27.2623 6.6875L31.4375 7.87241L22.4878 43.3125L18.3125 42.0645Z"
        />
        <path
            fill-rule="evenodd"
            clip-rule="evenodd"
            d="M13.5025 12.6875L16.5625 15.9278L7.99501 25.0001L16.5625 34.0721L13.5025 37.3125L1.875 25.0001L13.5025 12.6875Z"
        />
        <path
            fill-rule="evenodd"
            clip-rule="evenodd"
            d="M36.4976 12.6875L33.4375 15.9278L42.0051 25.0001L33.4375 34.0721L36.4976 37.3125L48.125 25.0001L36.4976 12.6875Z"
        />
    </g>

    <g id="html">
        <path
            d="M22.9817 102.004L14.5554 7.5H107.143L98.7054 101.989L60.7929 112.5L22.9817 102.004Z"
            fill="#E44F26"
        />
        <path
            d="M60.8492 104.468L91.4867 95.9738L98.6942 15.2288H60.8492V104.468Z"
            fill="#F1662A"
        />
        <path
            d="M60.8492 50.2762H45.5117L44.4542 38.4075H60.8492V26.8162H31.7867L32.0642 29.9287L34.9104 61.8675H60.8492V50.2762ZM60.8492 
            80.3775L60.7967 80.3925L47.8892 76.9087L47.0642 67.665H35.4279L37.0517 85.86L60.7967 92.4525L60.8492 92.4375V80.3775Z"
            fill="#EBEBEB"
        />
        <path
            d="M60.8079 50.2762V61.8675H75.0804L73.7379 76.9012L60.8079 80.3887V92.4487L84.5717 85.86L84.7442 83.9025L87.4667 53.3887L87.7517 
            50.2762H60.8079ZM60.8079 26.8162V38.4075H88.8054L89.0379 35.805L89.5667 29.9287L89.8442 26.8162H60.8079Z"
            fill="white"
        />
    </g>

    <g id="css">
        <path
            d="M22.3653 101.154L13.9428 7.4375H106.523L98.089 101.139L60.1765 111.562L22.3653 101.154Z"
            fill="#1572B6"
        />
        <path
            d="M60.2328 103.597L90.8703 95.174L98.0778 15.1019H60.2328V103.597Z"
            fill="#33A9DC"
        />
        <path
            d="M60.2328 49.054H75.5703L76.6278 37.2842H60.2328V25.7896H89.2953L89.0178 28.8724L86.1715 60.5487H60.2328V49.054Z"
            fill="white"
        />
        <path
            d="M60.304 78.9045L60.2515 78.9193L47.344 75.4609L46.519 66.2942H34.8828L36.5065 84.3413L60.2478 90.8788L60.304 90.864V78.9045Z"
            fill="#EBEBEB"
        />
        <path
            d="M74.584 60.0615L73.189 75.4534L60.2628 78.9119V90.8714L84.0228 84.3412L84.199 82.4001L86.2128 60.0615H74.584Z"
            fill="white"
        />
        <path
            d="M60.274 25.7896V37.2842H32.2765L32.044 34.6997L31.5153 28.8724L31.2378 25.7896H60.274ZM60.2328 
            49.054V60.5487H47.4865L47.254 57.9642L46.729 52.1369L46.4515 49.054H60.2328Z"
            fill="#EBEBEB"
        />
    </g>
    <g id="javascript">
        <path d="M7.5 7.5H112.5V112.5H7.5V7.5Z" fill="#F5DE19" />
        <path
            d="M78.0338 89.5312C78.9284 91.3485 80.3183 92.8759 82.0434 93.9375C83.7684 94.9991 85.7584 95.5515 87.7838 95.5313C91.8713 95.5313 94.485 93.4875 94.485 
            90.6562C94.485 87.2812 91.8 86.0738 87.3 84.105L84.8325 83.0475C77.7075 80.0138 72.9825 76.215 72.9825 68.1825C72.9825 60.7838 78.6075 55.1475 87.4313 55.1475C90.2877 
            54.9412 93.1416 55.5805 95.637 56.9856C98.1324 58.3907 100.159 60.4994 101.464 63.0488L93.75 67.98C93.2476 66.716 92.3728 65.6345 91.2416 64.879C90.1105 64.1236 
            88.7764 63.7298 87.4163 63.75C86.8229 63.6906 86.2236 63.7555 85.6567 63.9404C85.0897 64.1254 84.5675 64.4265 84.1234 64.8244C83.6792 65.2224 83.3228 65.7085 83.0769 
            66.2518C82.831 66.7951 82.7009 67.3837 82.695 67.98C82.695 70.9388 84.5288 72.1388 88.7625 73.98L91.23 75.0375C99.615 78.6338 104.355 82.2975 104.355 90.5363C104.355 
            99.42 97.3763 104.287 88.005 104.287C84.3537 104.52 80.713 103.691 77.5223 101.901C74.3317 100.11 71.7274 97.4342 70.0238 94.1963L78.0338 89.5312ZM43.1775 90.3863C44.7263 
            93.135 46.1363 95.46 49.5263 95.46C52.7663 95.46 54.8138 94.1925 54.8138 89.2612V55.71H64.68V89.3925C64.68 99.6075 58.68 104.257 49.9463 104.257C46.8591 104.426 43.7931 
            103.657 41.1513 102.051C38.5096 100.444 36.4157 98.0761 35.145 95.2575L43.1775 90.3863Z"
            fill="black"
        />
    </g>

    <g id="vscode">
        <path
            d="M101.535 17.605L81.354 7.88899C80.2143 7.33948 78.9319 7.15814 77.6845 7.37011C76.4372 7.58208 75.2867 8.17686 74.3925 9.07199L8.32998 69.3C7.52845 
            70.0273 7.04865 71.0432 6.99614 72.1243C6.94363 73.2053 7.32271 74.2629 8.04998 75.0645C8.13748 75.159 8.22498 75.25 8.31948 75.334L13.713 80.234C14.4178 
            80.8754 15.3249 81.2497 16.277 81.2919C17.229 81.3341 18.1657 81.0416 18.9245 80.465L98.497 20.125C99.098 19.6689 99.8144 19.3897 100.566 19.3186C101.317 
            19.2476 102.073 19.3877 102.749 19.7231C103.424 20.0585 103.993 20.5758 104.391 21.217C104.789 21.8581 105 22.5975 105 23.352V23.1175C105 21.9656 104.675 
            20.8372 104.062 19.862C103.449 18.8868 102.573 18.1045 101.535 17.605Z"
            fill="#0065A9"
        />
        <path
            d="M101.535 94.395L81.354 104.115C80.214 104.662 78.9319 104.843 77.6849 104.631C76.4379 104.419 75.2875 103.825 74.3925 102.932L8.32998 42.7C7.52845 41.9727 
            7.04865 40.9568 6.99614 39.8758C6.94363 38.7947 7.32271 37.7371 8.04998 36.9355C8.13748 36.841 8.22498 36.75 8.31948 36.666L13.713 31.766C14.4185 31.1219 15.3277 
            30.7459 16.2821 30.7037C17.2365 30.6615 18.1754 30.9557 18.935 31.535L98.497 91.875C99.098 92.3311 99.8144 92.6104 100.566 92.6814C101.317 92.7524 102.073 92.6123 
            102.749 92.2769C103.424 91.9415 103.993 91.4242 104.391 90.783C104.789 90.1419 105 89.4025 105 88.648V88.9C104.996 90.0488 104.669 91.1733 104.057 92.1451C103.444 
            93.1168 102.57 93.8965 101.535 94.395Z"
            fill="#007ACC"
        />
        <path
            d="M81.354 104.115C80.214 104.662 78.932 104.843 77.685 104.631C76.438 104.419 75.2876 103.825 74.3925 102.932C74.8952 103.428 75.533 103.764 76.2261 103.899C76.9193 
            104.035 77.6369 103.962 78.289 103.691C78.9412 103.42 79.4988 102.963 79.8921 102.376C80.2855 101.79 80.4969 101.1 80.5 100.394V11.606C80.5006 10.8965 80.2906 10.2028 
            79.8966 9.61281C79.5026 9.02277 78.9424 8.56294 78.2868 8.29158C77.6313 8.02022 76.91 7.94953 76.2142 8.08846C75.5184 8.2274 74.8796 8.56971 74.3785 9.07204C75.2729 
            8.17723 76.4232 7.58242 77.6703 7.36986C78.9174 7.1573 80.1998 7.3375 81.34 7.88554L101.518 17.5875C102.559 18.0845 103.438 18.8658 104.054 19.8412C104.671 20.8166 
            104.998 21.9463 105 23.1V88.9C105 90.0528 104.675 91.1823 104.061 92.1582C103.448 93.1341 102.571 93.9168 101.532 94.416L81.354 104.115Z"
            fill="#1F9CF0"
        />
    </g>

    <g id="github">
        <path
            fill-rule="evenodd"
            clip-rule="evenodd"
            d="M44 0C19.69 0 0 19.69 0 44C0 63.47 12.595 79.915 30.085 85.745C32.285 86.13 33.11 84.81 33.11 83.655C33.11 82.61 33.055 79.145 33.055 75.46C22 77.495 19.14 
            72.765 18.26 70.29C17.765 69.025 15.62 65.12 13.75 64.075C12.21 63.25 10.01 61.215 13.695 61.16C17.16 61.105 19.635 64.35 20.46 65.67C24.42 72.325 30.745 70.455 
            33.275 69.3C33.66 66.44 34.815 64.515 36.08 63.415C26.29 62.315 16.06 58.52 16.06 41.69C16.06 36.905 17.765 32.945 20.57 29.865C20.13 28.765 18.59 24.255 21.01 
            18.205C21.01 18.205 24.695 17.05 33.11 22.715C36.63 21.725 40.37 21.23 44.11 21.23C47.85 21.23 51.59 21.725 55.11 22.715C63.525 16.995 67.21 18.205 67.21 18.205C69.63 
            24.255 68.09 28.765 67.65 29.865C70.455 32.945 72.16 36.85 72.16 41.69C72.16 58.575 61.875 62.315 52.085 63.415C53.68 64.79 55.055 67.43 55.055 71.555C55.055 77.44 55 
            82.17 55 83.655C55 84.81 55.825 86.185 58.025 85.745C66.7597 82.796 74.3497 77.1822 79.7268 69.6937C85.1039 62.2052 87.9974 53.219 88 44C88 19.69 68.31 0 44 0Z"
            fill="#FFFEFE"
        />
    </g>

    <g id="react">
        <g clip-path="url(#clip0_13_2986)">
            <path
                d="M93.1056 32.7027C91.9031 32.2887 90.6904 31.9051 89.4687 31.5523C89.6739 30.7106 89.8628 29.8792 90.0305 
                29.0623C92.7838 15.6483 90.9839 4.84178 84.8361 1.28375C78.9416 -2.12722 69.3016 1.42949 59.5659 9.93342C58.6064 
                10.773 57.6682 11.6368 56.7521 12.524C56.1389 11.934 55.5149 11.3556 54.8803 10.7888C44.6767 1.69616 34.4493 -2.13608 
                28.3081 1.43215C22.4189 4.85374 20.675 15.0127 23.1538 27.7254C23.4004 28.9844 23.6788 30.237 23.9888 31.4819C22.5411 
                31.8947 21.1442 32.3342 19.8073 32.8019C7.84441 36.9881 0.204742 43.5483 0.204742 50.3529C0.204742 57.3808 8.40627 
                64.43 20.8661 68.7043C21.8763 69.0495 22.8948 69.3692 23.9209 69.6634C23.5876 71.0042 23.2918 72.354 23.0337 73.7114C20.6706 
                86.2035 22.516 96.1223 28.3893 99.5222C34.4555 103.033 44.637 99.4247 54.5506 90.7268C55.3545 90.0196 56.1407 89.2925 56.9084 
                88.546C57.9004 89.5066 58.9189 90.4393 59.9627 91.343C69.566 99.6365 79.0501 102.985 84.9177 99.5762C90.9782 96.055 92.948 
                85.3995 90.3907 72.4356C90.1892 71.42 89.9633 70.4094 89.7132 69.4047C90.4282 69.1921 91.13 68.9732 91.8141 68.7455C104.767 
                64.4384 113.195 57.4747 113.195 50.3529C113.195 43.5234 105.309 36.919 93.1056 32.7027ZM90.2962 64.1474C89.6783 64.3525 89.0445 
                64.5505 88.3983 64.7432C86.9683 60.1995 85.0386 55.3684 82.6769 50.3764C84.9305 45.5036 86.786 40.734 88.1759 36.22C89.3318 
                36.5558 90.4534 36.9097 91.5347 37.2832C101.991 40.8961 108.369 46.2372 108.369 50.3529C108.369 54.7367 101.481 60.4277 90.2962 
                64.1474ZM85.6557 73.3765C86.7865 79.1087 86.9476 84.2916 86.1986 88.3435C85.5259 91.9844 84.1727 94.4115 82.499 95.3839C78.9385 
                97.4526 71.3235 94.7637 63.111 87.6706C62.1401 86.8305 61.1927 85.9634 60.2699 85.0703C63.4539 81.5756 66.6357 77.5131 69.7412 
                73.0008C75.2036 72.5144 80.3641 71.7188 85.0439 70.6331C85.2694 71.5426 85.4734 72.4573 85.6557 73.3765ZM38.7257 95.0264C35.2468 
                96.2592 32.4759 96.2946 30.8009 95.3254C27.2369 93.2624 25.7552 85.298 27.7762 74.6151C28.0165 73.3527 28.2915 72.0972 28.6011 
                70.8502C33.2293 71.8779 38.3523 72.6168 43.8275 73.0624C46.9542 77.4776 50.2278 81.5358 53.5271 85.0894C52.8259 85.7703 52.1082 
                86.4338 51.3745 87.0793C46.9904 90.9252 42.5974 93.654 38.7257 95.0264ZM22.4277 64.1204C16.9181 62.2302 12.368 59.7738 9.24929 
                57.0933C6.44659 54.6848 5.032 52.2932 5.032 50.3529C5.032 46.2234 11.1657 40.9564 21.3962 37.3766C22.6378 36.9425 23.9372 36.5327 
                25.2856 36.1482C26.6997 40.7641 28.5544 45.5904 30.7925 50.4707C28.5252 55.4233 26.6441 60.3267 25.2163 64.997C24.2797 64.7278 
                23.3499 64.4355 22.4277 64.1204ZM27.891 26.7947C25.7676 15.9031 27.1777 7.68706 30.7268 5.62497C34.5067 3.42867 42.8653 6.56011 
                51.6755 14.4115C52.25 14.9247 52.8152 15.4482 53.3708 15.9819C50.0879 19.52 46.8443 23.548 43.7454 27.9371C38.4313 28.4315 33.3445 
                29.2253 28.6678 30.2889C28.3797 29.131 28.1206 27.9661 27.891 26.7951V26.7947ZM76.6301 38.8739C75.5255 36.9589 74.3798 35.0679 73.194 
                33.2024C76.7991 33.66 80.2533 34.2673 83.4969 35.0098C82.5233 38.1425 81.3095 41.4175 79.8808 44.7753C78.8365 42.7867 77.7527 40.8191 
                76.6301 38.8739ZM56.7544 19.4443C58.9806 21.8652 61.2104 24.5678 63.4036 27.5003C58.9546 27.2894 54.4982 27.2886 50.0491 27.4977C52.2444 
                24.5922 54.4932 21.8931 56.7544 19.4443ZM36.751 38.9071C35.6425 40.8367 34.5789 42.792 33.5613 44.7713C32.1559 41.4255 30.9532 38.1355 
                29.9712 34.9584C33.1949 34.2346 36.6327 33.6427 40.2149 33.1935C39.0159 35.0704 37.8609 36.9754 36.751 38.9067V38.9071ZM40.3177 67.8569C36.6169 
                67.4423 33.1274 66.881 29.9045 66.1767C30.902 62.9429 32.1312 59.5829 33.567 56.1653C34.5887 58.1461 35.6567 60.1026 36.77 62.033C37.9149 
                64.0176 39.1004 65.9614 40.3177 67.8569ZM56.8876 81.6027C54.5996 79.1255 52.3177 76.3848 50.0892 73.4372C52.2528 73.5222 54.4583 73.5656 
                56.7001 73.5656C59.0031 73.5656 61.2797 73.5138 63.5205 73.4137C61.3203 76.4145 59.0989 79.1592 56.8876 81.6027ZM79.9263 55.9907C81.4366 
                59.446 82.7095 62.7883 83.7203 65.9667C80.4444 66.7171 76.9073 67.3214 73.1804 67.7701C74.3746 65.8699 75.5311 63.9461 76.6491 61.9998C77.7858 
                60.0214 78.8784 58.0179 79.9263 55.9907ZM72.468 59.5794C70.7564 62.5634 68.9487 65.4909 67.0475 68.357C63.6038 68.6018 60.1524 68.7234 56.7001 
                68.7216C53.1837 68.7216 49.7635 68.6118 46.47 68.3974C44.5192 65.5378 42.677 62.6053 40.9471 59.6059H40.9476C39.2259 56.6225 37.6177 53.5745 
                36.1265 50.4685C37.6139 47.3618 39.2172 44.3124 40.933 41.3267L40.9326 41.3271C42.6477 38.3407 44.4753 35.4206 46.4113 32.5734C49.7714 32.3182 
                53.2172 32.1853 56.6996 32.1853H56.7001C60.1984 32.1853 63.6485 32.3195 67.0078 32.5765C68.9243 35.4195 70.7402 38.3295 72.4521 41.301C74.1736 
                44.2801 75.7981 47.3147 77.3231 50.3999C75.8138 53.5166 74.1944 56.5783 72.468 59.5794ZM82.4253 5.48056C86.2087 7.67067 87.6802 16.5024 85.303 
                28.0842C85.1512 28.8231 84.9808 29.5757 84.7954 30.339C80.1072 29.2528 75.0169 28.4452 69.6874 27.9433C66.5828 23.506 63.3656 19.4717 60.1361 
                15.9792C60.9825 15.1604 61.849 14.3628 62.7349 13.5871C71.0768 6.30141 78.8732 3.42468 82.4253 5.48056ZM56.7001 40.2263C62.2724 40.2263 66.7898 
                44.7603 66.7898 50.3529C66.7898 55.9456 62.2724 60.4795 56.7001 60.4795C51.1278 60.4795 46.6104 55.9456 46.6104 50.3529C46.6104 44.7603 51.1278 
                40.2263 56.7001 40.2263Z"
                fill="#00D8FF"
            />
        </g>
        <defs>
            <clipPath id="clip0_13_2986">
                <rect
                    width="113"
                    height="101"
                    fill="white"
                    transform="translate(0.200012)"
                />
            </clipPath>
        </defs>
    </g>

    <g id="styledComponents">
        <g clip-path="url(#clip0_1_2427)">
            <path
                d="M68.7673 118.279C68.9473 117.872 69.4015 117.589 69.7315 117.246C74.7666 111.967 79.8446 106.735 84.8111 101.391C86.3653 99.9558 87.5662 98.1804 
                88.32 96.2036C89.0739 94.2269 89.3601 92.1026 89.1563 89.9968C89.0004 89.0951 88.7958 88.2025 88.5435 87.3229C87.1894 88.6084 85.9296 89.7783 84.6611 
                90.9567C82.6899 92.7908 80.7273 94.6334 78.739 96.4461C77.5665 97.6415 76.059 98.4531 74.4156 98.7737C72.7721 99.0943 71.0701 98.9087 69.5344 98.2416C67.9797 
                97.6705 66.627 96.6553 65.6443 95.3221C64.6616 93.9889 64.092 92.3965 64.0064 90.7425C63.9604 90.5297 63.8988 90.3206 63.8222 90.1168C62.3095 91.4024 60.8611 
                92.5851 59.4256 93.8021L29.5877 119.085C29.382 119.261 29.1591 119.479 28.9663 119.65H68.7459L68.6859 119.612C68.4716 119.462 68.583 118.673 68.7673 118.279Z"
                fill="#FFCEBF"
            />
            <path
                d="M27.1434 118.279C27.4972 117.818 27.9243 117.418 28.4075 117.096L69.6997 82.0642C72.5165 79.6731 75.3205 77.2691 78.1116 74.8522C78.4565 74.6118 78.7267 
                74.2791 78.8915 73.8924C79.5591 70.9831 79.6537 67.9717 79.17 65.0263C78.7415 65.3262 78.5101 65.4548 78.313 65.6648C74.932 68.6901 71.5681 71.7412 68.1699 
                74.7494C67.0442 75.8824 65.5882 76.6292 64.0113 76.8825C62.4344 77.1359 60.8177 76.8826 59.3938 76.1592C57.9411 75.4734 56.7253 74.3709 55.9012 72.992C55.077 
                71.6131 54.6818 70.0201 54.7658 68.4159V67.0275C54.1444 67.4817 53.6902 67.7859 53.266 68.1287C36.7394 81.3615 20.2156 94.5842 3.69472 107.797C2.94909 108.393 
                2.05777 109.721 1.08074 108.431C0.103713 107.141 1.59068 106.61 2.34059 106.01C19.9528 91.8774 37.5736 77.7576 55.2029 63.6507C58.074 61.3496 58.2625 60.3854 
                56.3942 56.7301L55.28 57.7757C52.2247 60.6168 49.135 63.4193 46.1268 66.3075C44.8929 67.4978 43.3474 68.3148 41.6689 68.6641C39.9904 69.0135 38.2473 68.8809 
                36.6409 68.2818C35.0345 67.6827 33.6304 66.6415 32.5905 65.2784C31.5507 63.9153 30.9176 62.2858 30.7644 60.5782C30.1944 61.0067 29.7016 61.3196 29.2345 61.6838L3.09479 
                81.9443C2.64395 82.3864 2.1298 82.7591 1.56925 83.0498C1.14619 83.1777 0.69189 83.155 0.283691 82.9856V119.671H27.0919C26.9923 119.451 26.945 119.21 26.954 118.969C26.9629 
                118.727 27.0277 118.491 27.1434 118.279Z"
                fill="#FFCEBF"
            />
            <path
                d="M99.5652 1.82096C98.8367 4.20782 98.1297 6.59897 97.4912 9.01154C96.9014 10.7164 96.97 12.5802 97.6836 14.2371C98.3971 15.8941 99.704 17.2246 101.348 
                17.9676C106.376 20.6107 112.042 21.798 117.709 21.3958V2.22806C117.646 1.80781 117.669 1.37914 117.777 0.968207C117.897 0.73576 118.049 0.520916 118.227 
                0.329712H99.5481C99.8352 0.663958 99.7366 1.25103 99.5652 1.82096Z"
                fill="#FF6196"
            />
            <path
                d="M62.0512 42.9976C61.9624 45.137 61.214 47.1966 59.9086 48.894C55.2421 54.9179 49.883 60.3719 43.9419 65.1435C42.9839 66.0304 41.7695 66.591 40.4731 
                66.745C39.1767 66.8989 37.8648 66.6383 36.7256 66.0005C35.5918 65.5161 34.6358 64.6925 33.989 63.6428C33.3421 62.5932 33.0362 61.369 33.1132 60.1384C33.2505 
                58.627 33.878 57.202 34.9002 56.0803C41.5437 49.7455 48.7416 44.019 56.4076 38.9695C56.9097 38.5758 57.5228 38.3499 58.1603 38.3237C58.7978 38.2976 59.4274 
                38.4725 59.96 38.8238C60.6601 39.2585 61.2261 39.8786 61.5952 40.6153C61.9643 41.352 62.1222 42.1766 62.0512 42.9976Z"
                fill="#FF87AF"
            />
            <path
                d="M56.9126 68.97C56.8131 68.0228 56.9347 67.0654 57.2678 66.1731C57.6009 65.2809 58.1365 64.478 58.8324 63.8277C65.3372 57.8281 72.3163 52.3638 79.7013 
                47.4883C79.9241 47.3468 80.1298 47.2054 80.3741 47.0597C81.0192 46.594 81.8008 46.356 82.5959 46.3832C83.3911 46.4103 84.1546 46.7011 84.7664 47.2097C85.3584 
                47.7112 85.7772 48.3865 85.9634 49.1396C86.1496 49.8928 86.0936 50.6854 85.8034 51.4049C84.8691 54.5168 83.1448 57.3337 80.7983 59.5811C76.0329 64.2758 71.1753 
                68.8762 66.2286 73.3795C65.4836 74.1456 64.5051 74.6422 63.4469 74.7911C62.3888 74.9401 61.3111 74.7329 60.3836 74.2022C59.409 73.6958 58.5791 72.9499 57.9719 
                72.0347C57.3648 71.1194 57.0002 70.0648 56.9126 68.97Z"
                fill="#FF87AF"
            />
            <path
                d="M87.8344 71.8015C86.6346 73.0871 85.4004 74.3126 84.2477 75.6282C83.9011 76.1367 83.6136 76.683 83.3907 77.2566C84.0249 77.4451 84.7662 77.9422 85.2804 
                77.7665C87.8987 76.888 90.4527 75.8339 93.3281 74.724C92.7024 76.1638 92.231 77.4922 91.5668 78.7092C88.8305 83.3078 85.4038 87.4587 81.4066 91.0164C79.8868 
                92.4819 78.3084 93.8832 76.6715 95.2201C75.8046 95.9395 74.7622 96.4157 73.6509 96.6001C72.5396 96.7844 71.3992 96.6702 70.3465 96.2692C69.2938 95.8681 68.3665 
                95.1947 67.6595 94.3176C66.9525 93.4406 66.4912 92.3916 66.3227 91.2778C66.254 90.6585 66.3087 90.0317 66.4838 89.4337C66.6589 88.8357 66.9507 88.2784 67.3426 
                87.7939C73.174 81.4614 79.8384 75.9503 87.1531 71.4115C87.242 71.3771 87.3363 71.3582 87.4316 71.3558L87.8344 71.8015Z"
                fill="#FF87AF"
            />
            <path
                d="M97.6724 54.7335L105.004 22.1659L110.147 23.37L107.494 31.4305C105.017 38.9296 102.51 46.4287 100.093 53.9364C99.6221 55.3248 99.0051 55.5819 97.6724 54.7335Z"
                fill="#FF6196"
            />
            <path
                d="M89.3857 73.8885C90.1614 70.9274 90.9327 68.1892 91.5841 65.421C92.2189 62.7364 93.4263 60.2207 95.1236 58.0461C96.1649 56.6791 97.3348 57.2234 98.5304 
                57.519C99.636 57.789 99.9145 58.5989 99.9616 59.6616C100.136 62.6005 99.241 65.5031 97.4419 67.8335C95.3002 70.4887 92.5317 72.5695 89.3857 73.8885Z"
                fill="#FF6196"
            />
            <path
                d="M119.944 3.83936C120.008 2.88498 119.983 1.92674 119.871 0.976845C119.783 0.711516 119.607 0.483621 119.374 0.329779C119.184 0.175101 118.961 0.0652523 
                118.723 0.00838844C118.585 -0.0173228 118.393 0.124089 118.208 0.325493C118.03 0.516698 117.878 0.731542 117.758 0.96399C117.65 1.37492 117.627 1.80359 117.69 
                2.22384V21.3873C112.023 21.7895 106.357 20.6022 101.329 17.9591C99.685 17.2161 98.3781 15.8856 97.6646 14.2286C96.951 12.5717 96.8824 10.7079 97.4722 9.00304C98.1107 
                6.59046 98.8178 4.19932 99.5462 1.81246C99.7177 1.24253 99.8162 0.655454 99.5462 0.321208C99.3961 0.158494 99.1888 0.0602123 98.9677 0.0469556C98.6847 0.0500088 98.4105 
                0.146413 98.1878 0.321208C97.8674 0.512888 97.6121 0.796593 97.4551 1.1354C96.598 3.70652 95.8438 6.30336 95.1882 8.9259C94.9407 9.95936 94.874 11.0279 94.9911 
                12.0841C95.1569 13.9952 95.8676 15.8186 97.0389 17.3377C98.2102 18.8569 99.7928 20.0081 101.599 20.6545C102.409 20.993 102.884 21.3273 102.657 22.3943C102.344 23.7484 
                102.04 25.1026 101.732 26.461C99.632 35.6656 97.5436 44.8745 95.4667 54.0877C95.4082 54.4985 95.2275 54.8822 94.9482 55.189C93.5793 56.2771 92.4291 57.6148 91.5586 
                59.1314C90.4493 61.1327 89.6817 63.3052 89.2875 65.5592C89.2118 66.2782 88.952 66.9655 88.5331 67.5548C88.1143 68.144 87.5505 68.6153 86.8963 68.9231C85.1094 69.8273 
                83.4682 70.9971 81.4841 72.2141C81.6164 69.8282 81.5906 67.4361 81.407 65.0535C81.256 64.3206 81.288 63.5618 81.5003 62.8442C81.7126 62.1267 82.0985 61.4725 82.624 
                60.9397C85.2375 58.3506 87.1005 55.1015 88.0148 51.538C88.2878 50.712 88.3627 49.8333 88.2333 48.9729C88.104 48.1126 87.774 47.2948 87.27 46.5856C86.7661 45.8764 
                86.1023 45.2957 85.3325 44.8905C84.5626 44.4853 83.7081 44.267 82.8382 44.2531C81.4298 44.2374 80.047 44.6304 78.8573 45.3844C74.7683 48.1767 70.7504 51.0715 66.8073 
                54.0663C64.4633 55.8318 62.2564 57.7858 59.9852 59.637C59.8873 59.5319 59.8025 59.4154 59.7324 59.2899C59.689 58.9744 59.604 58.6661 59.4796 58.3729C57.5812 55.4418 
                58.8968 53.3121 60.958 51.1223C63.1053 48.8714 64.2919 45.8727 64.2661 42.7619C64.3327 41.1769 63.8363 39.6194 62.8649 38.3653C62.3474 37.7286 61.7096 37.2001 60.988 
                36.8097C59.9629 36.2487 58.7908 36.0145 57.6289 36.1386C56.467 36.2627 55.3708 36.7391 54.4873 37.5039L53.2917 38.361C50.5621 40.315 47.7981 42.2177 45.1713 44.3089C41.3364 
                47.3705 37.5841 50.5341 33.9183 53.7963C32.2042 55.309 30.953 57.3744 29.1746 58.78C19.9014 66.1034 10.5297 73.294 1.1922 80.5317C0.871132 80.7232 0.575909 80.9551 
                0.313735 81.2216C0.286745 81.2606 0.263774 81.3023 0.245172 81.3459C0.0480521 81.8044 -0.119071 82.5629 0.112331 82.8414C0.169054 82.9019 0.23761 82.95 0.313735 
                82.9828C0.721934 83.1523 1.17623 83.175 1.5993 83.0471C2.15985 82.7563 2.67399 82.3837 3.12483 81.9415L29.2646 61.6811C29.7317 61.3168 30.2245 60.9869 30.7944 
                60.5755C30.9476 62.2831 31.5807 63.9125 32.6206 65.2757C33.6604 66.6388 35.0646 67.68 36.671 68.2791C38.2774 68.8782 40.0204 69.0107 41.6989 68.6614C43.3774 68.312 
                44.9229 67.4951 46.1569 66.3048C49.1565 63.4166 52.2547 60.6141 55.3101 57.773L56.4242 56.7274C58.2926 60.3827 58.104 61.3468 55.2329 63.648C37.5893 77.7663 19.9585 
                91.8875 2.34064 106.012C1.59073 106.611 0.108046 107.156 1.08079 108.433C2.05353 109.71 2.94914 108.394 3.69476 107.798C20.2242 94.5972 36.7423 81.3787 53.2489 
                68.1432C53.6774 67.8003 54.1273 67.4961 54.7487 67.0419V68.4303C54.6647 70.0345 55.0599 71.6275 55.8841 73.0064C56.7082 74.3853 57.924 75.4879 59.3767 76.1736C60.8007 
                76.897 62.4173 77.1503 63.9942 76.897C65.5711 76.6436 67.0271 75.8968 68.1528 74.7638C71.551 71.7642 74.9149 68.7045 78.2959 65.6792C78.5102 65.4863 78.7587 65.3406 
                79.153 65.0407C79.6367 67.9861 79.542 70.9975 78.8744 73.9068C78.7096 74.2936 78.4394 74.6262 78.0945 74.8667C75.3005 77.2807 72.4966 79.6847 69.6826 82.0787L28.4075 
                117.115C27.9243 117.437 27.4972 117.836 27.1434 118.297C27.0305 118.507 26.9672 118.741 26.9582 118.979C26.9493 119.217 26.9951 119.455 27.092 119.673C27.2856 119.818 
                27.5094 119.917 27.7468 119.964C27.9842 120.011 28.2291 120.004 28.4633 119.943C28.648 119.889 28.8181 119.794 28.9603 119.664C29.1746 119.493 29.3889 119.274 29.5817 
                119.099L59.4196 93.8158C60.8551 92.5988 62.3035 91.399 63.8162 90.1306C63.8928 90.3343 63.9544 90.5434 64.0005 90.7562C64.0861 92.4102 64.6556 94.0027 65.6383 
                95.3358C66.6211 96.669 67.9737 97.6842 69.5284 98.2553C71.0641 98.9225 72.7662 99.108 74.4096 98.7874C76.053 98.4669 77.5606 97.6552 78.733 96.4598C80.7213 
                94.6472 82.684 92.8045 84.6552 90.9705C85.9407 89.792 87.1834 88.6093 88.5376 87.3366C88.7898 88.2162 88.9944 89.1089 89.1503 90.0106C89.3473 92.1094 89.0578 
                94.2253 88.3042 96.1941C87.5506 98.1628 86.3532 99.9313 84.8051 101.362C79.8386 106.71 74.7606 111.942 69.7255 117.217C69.3955 117.56 68.9413 117.843 68.7613 
                118.25C68.5813 118.657 68.4657 119.454 68.6799 119.626L68.7399 119.664C69.1892 119.883 69.6945 119.959 70.1883 119.883C70.3267 119.854 70.45 119.777 70.5354 
                119.664C70.6554 119.54 70.7711 119.386 70.8868 119.27C74.9663 115.053 79.0672 110.858 83.1168 106.611C84.7513 104.955 86.288 103.205 87.7191 101.371C89.5851 
                99.3049 90.8224 96.7492 91.2855 94.0042C91.7486 91.2591 91.4181 88.439 90.3331 85.8754C90.2164 85.3037 90.3304 84.7092 90.6502 84.2213C90.9287 83.7413 91.2372 
                83.2742 91.5543 82.8114C92.569 81.494 93.4141 80.0544 94.0698 78.5262C95.3368 74.7758 97.2817 71.2898 99.8076 68.2417C100.969 66.7695 101.768 65.0448 102.14 
                63.207C102.512 61.3692 102.447 59.4696 101.95 57.6616C101.775 56.9741 101.775 56.2535 101.95 55.5661C104.119 48.8512 106.351 42.1577 108.562 35.4599L111.519 
                26.4867L112.432 23.7142C114.377 23.7142 116.211 23.6756 118.037 23.7142C119.554 23.757 120.017 23.0457 120 21.5715C119.91 15.658 119.944 9.74866 119.944 
                3.83936ZM43.9371 65.1435C42.9791 66.0304 41.7647 66.591 40.4683 66.745C39.1719 66.8989 37.86 66.6383 36.7208 66.0006C35.587 65.5162 34.631 64.6925 33.9842 
                63.6429C33.3373 62.5932 33.0314 61.369 33.1084 60.1384C33.2457 58.6271 33.8732 57.202 34.8953 56.0803C41.5388 49.7455 48.7368 44.019 56.4028 38.9695C56.8212 
                38.6737 57.2972 38.4693 57.7998 38.3696C58.1369 38.3074 58.4825 38.3074 58.8196 38.3696C59.2234 38.4482 59.6086 38.6023 59.9552 38.8238C60.656 39.2588 61.2224 
                39.8796 61.5916 40.6171C61.9607 41.3547 62.1182 42.1802 62.0464 43.0019C61.9576 45.1413 61.2092 47.2009 59.9038 48.8983C55.237 54.9207 49.878 60.3733 43.9371 
                65.1435ZM66.2202 73.4097C65.4752 74.1758 64.4966 74.6724 63.4385 74.8213C62.3803 74.9703 61.3027 74.7631 60.3752 74.2324C59.3988 73.7249 58.5678 72.977 57.9605 
                72.0593C57.3533 71.1416 56.9897 70.0844 56.9042 68.9874C56.8047 68.0401 56.9263 67.0828 57.2594 66.1905C57.5925 65.2982 58.1281 64.4954 58.8239 63.8451C65.3288 
                57.8454 72.3078 52.3811 79.6929 47.5056C79.9157 47.3642 80.1214 47.2228 80.3657 47.0771C81.0107 46.6114 81.7923 46.3734 82.5875 46.4005C83.3826 46.4277 84.1462 
                46.7185 84.758 47.2271C85.35 47.7285 85.7688 48.4038 85.955 49.157C86.1412 49.9101 86.0852 50.7028 85.795 51.4223C84.8607 54.5342 83.1364 57.351 80.7899 59.5985C76.0633 
                64.3208 71.1482 68.8674 66.2288 73.3925L66.2202 73.4097ZM91.5501 78.7276C88.8175 83.319 85.3967 87.4638 81.407 91.0176C79.8872 92.4831 78.3088 93.8844 76.6718 
                95.2214C75.8049 95.9408 74.7625 96.417 73.6512 96.6013C72.5399 96.7856 71.3996 96.6714 70.3469 96.2704C69.2942 95.8694 68.3669 95.1959 67.6599 94.3189C66.9529 
                93.4419 66.4915 92.3928 66.323 91.279C66.2543 90.6597 66.3091 90.0329 66.4842 89.435C66.6592 88.837 66.9511 88.2796 67.3429 87.7951C73.1743 81.4627 79.8387 
                75.9515 87.1534 71.4128C87.2424 71.3783 87.3366 71.3594 87.432 71.3571L87.8605 71.7856C86.6606 73.0712 85.4265 74.2967 84.2738 75.6123C83.9272 76.1208 83.6396 
                76.6671 83.4167 77.2407C84.0509 77.4292 84.7923 77.9263 85.3065 77.7506C87.3763 77.0564 89.4117 76.2508 91.5929 75.3937L93.3541 74.7081C92.6942 76.1651 92.2228 
                77.4935 91.5586 78.7105L91.5501 78.7276ZM97.4336 67.8646C95.8352 69.8996 93.8317 71.5806 91.5501 72.8012C90.8444 73.1954 90.1202 73.564 89.3775 73.9068C90.1402 
                70.9885 90.903 68.2846 91.5501 65.5506L91.5758 65.4392C92.2106 62.7546 93.418 60.2389 95.1153 58.0644C96.1566 56.6974 97.3265 57.2416 98.5221 57.5373C99.6277 
                57.8073 99.9062 58.6172 99.9533 59.6799C100.129 62.6162 99.2372 65.5171 97.4422 67.8475L97.4336 67.8646ZM107.461 31.4404C104.984 38.9395 102.477 46.4386 100.06 
                53.9463C99.6062 55.3561 98.9892 55.6132 97.6565 54.7648L104.011 26.5124L104.988 22.1758L110.131 23.3799L109.098 26.5124L107.461 31.4404Z"
                fill="#1F2626"
            />
        </g>
        <defs>
            <clipPath id="clip0_1_2427">
                <rect width="120" height="120" fill="white" />
            </clipPath>
        </defs>
    </g>

    <g id="typescript">
        <path d="M0 60V120H60H120V60V0H60H0V60Z" fill="#007ACC" />
        <path
            d="M26.5375 60.3979L26.4994 65.3122H34.309H42.1185L42.1185 87.5026V109.693H47.6423H53.1661V87.5026L53.1661 65.3122H60.9756H68.7852V60.4931C68.7852 
            57.8264 68.728 55.5979 68.6518 55.5407C68.5947 55.4645 59.0899 55.4264 47.5661 55.4455L26.5947 55.5026L26.5375 60.3979Z"
            fill="white"
        />
        <path
            d="M96.8265 55.3636C99.8741 56.1255 102.198 57.4779 104.331 59.6874C105.436 60.8684 107.074 63.0208 107.207 63.535C107.246 63.6874 102.026 67.1922 98.8646 
            69.1541C98.7503 69.2303 98.2931 68.7351 97.7789 67.9731C96.236 65.7255 94.6169 64.7541 92.1408 64.5827C88.5027 64.335 86.1598 66.2398 86.1789 69.4208C86.1789 
            70.3541 86.3122 70.9065 86.6931 71.6684C87.4931 73.3255 88.9789 74.316 93.6455 76.3351C102.236 80.0303 105.912 82.4684 108.198 85.935C110.75 89.8017 111.322 95.9731 
            109.588 100.564C107.684 105.554 102.96 108.945 96.3122 110.068C94.255 110.43 89.3789 110.373 87.1693 109.973C82.3503 109.116 77.7789 106.735 74.9598 103.611C73.855 
            102.392 71.7027 99.2112 71.836 98.9827C71.8931 98.9065 72.3884 98.6017 72.9408 98.2779C73.4741 97.9731 75.4931 96.8112 77.3979 95.7065L80.8455 93.7065L81.5693 
            94.7731C82.5789 96.316 84.7884 98.4303 86.1217 99.135C89.9503 101.154 95.2074 100.868 97.7979 98.5446C98.9027 97.535 99.3598 96.4874 99.3598 94.9446C99.3598 
            93.5541 99.1884 92.9446 98.4646 91.897C97.5312 90.5636 95.6265 89.4398 90.2169 87.097C84.0265 84.4303 81.3598 82.7731 78.9217 80.1446C77.5122 78.6208 76.1789 
            76.1827 75.6265 74.1446C75.1693 72.4493 75.055 68.2017 75.4169 66.4874C76.6931 60.5065 81.2074 56.335 87.7217 55.097C89.836 54.697 94.7503 54.8493 96.8265 55.3636Z"
            fill="white"
        />
    </g>

    <g id="sass">
        <g clip-path="url(#clip0_13_2988)">
            <path
                d="M101.473 50.0766C97.4031 50.0975 93.8654 51.0694 90.9035 52.5063C89.8163 50.3721 88.7295 48.4708 88.538 
                47.076C88.3246 45.4493 88.0691 44.4561 88.3246 42.5122C88.5805 40.5683 89.7313 37.8001 89.7098 37.589C89.6888 
                37.3778 89.4539 36.3846 87.1099 36.3637C84.7659 36.3424 82.7413 36.8073 82.5069 37.42C82.2724 38.0326 81.825 
                39.4273 81.5266 40.8637C81.1217 42.9771 76.8386 50.5198 74.3881 54.471C73.5993 52.9291 72.9175 51.5765 72.768 
                50.499C72.5551 48.8722 72.2991 47.879 72.5551 45.9351C72.811 43.9912 73.9617 41.2235 73.9403 41.0119C73.9188 
                40.8007 73.6843 39.8075 71.3403 39.7866C68.9959 39.7653 66.9713 40.2302 66.7373 40.8429C66.5029 41.4559 66.247 
                42.8923 65.7571 44.2871C65.2667 45.6818 59.5769 58.275 58.0853 61.5285C57.4824 62.8453 56.8501 64.1487 56.1887 
                65.4376C56.1887 65.4376 56.1672 65.501 56.1032 65.6066C55.8954 66.0107 55.6824 66.4122 55.4643 66.811V66.8318C55.1444 
                67.4028 54.8035 67.9307 54.633 67.9307C54.5051 67.9307 54.2706 66.4095 54.6755 64.3387C55.5278 59.9652 57.5524 
                53.1615 57.5314 52.9291C57.5314 52.8022 57.9148 51.6191 56.2102 51.006C54.5476 50.3934 53.9512 51.4075 53.8017 
                51.4075C53.6527 51.4075 53.5458 51.7668 53.5458 51.7668C53.5458 51.7668 55.4003 44.118 50.0085 44.118C46.6418 
                44.118 41.9958 47.7734 39.6943 51.0694C37.078 52.4811 34.4639 53.8968 31.8521 55.3166C30.5953 56.0139 29.2951 
                56.7113 28.0804 57.3661C27.9949 57.2818 27.9099 57.1758 27.8244 57.0915C21.3034 50.1822 9.24203 45.3012 9.75342 
                36.0257C9.94537 32.6449 11.1171 23.7705 32.9178 12.9947C50.8609 4.22583 65.1392 6.65549 67.6111 12.0436C71.1484 
                19.7349 59.9608 34.0183 41.4204 36.0887C34.3455 36.8708 30.6373 34.1661 29.7 33.152C28.7197 32.0953 28.5703 32.0318 
                28.2079 32.2435C27.6115 32.5606 27.9949 33.5113 28.2079 34.0605C28.7622 35.4969 31.0422 38.0326 34.8994 39.2796C38.3091 
                40.378 46.5988 40.991 56.6361 37.1454C67.8666 32.8348 76.6467 20.8546 74.0682 10.8183C71.4893 0.633908 54.4411 -2.72556 
                38.3091 2.95799C28.7197 6.33921 18.32 11.6634 10.8402 18.594C1.95366 26.834 0.54699 33.997 1.12236 36.9976C3.18987 
                47.6465 18.0006 54.5771 23.9248 59.7114C23.6264 59.8804 23.349 60.0286 23.115 60.1555C20.1526 61.6132 8.85814 67.4658 
                6.04526 73.6568C2.84894 80.6716 6.55711 85.7009 9.00759 86.3765C16.6154 88.4686 24.4362 84.7076 28.6343 78.4953C32.8323 
                72.2834 32.321 64.2119 30.3819 60.5144C30.3604 60.4722 30.3394 60.4296 30.2964 60.3875C31.0637 59.9439 31.8521 59.479 
                32.6194 59.0354C34.0297 58.2088 35.4578 57.4126 36.9029 56.6474C36.1781 58.6126 35.6452 60.958 35.3898 64.3387C35.0699 
                68.3113 36.7105 73.4665 38.863 75.4947C39.8223 76.3828 40.9516 76.4037 41.6764 76.4037C44.1908 76.4037 45.3206 74.3329 
                46.5778 71.8819C48.112 68.8818 49.4972 65.3954 49.4972 65.3954C49.4972 65.3954 47.771 74.8191 52.4595 74.8191C54.1641 
                74.8191 55.8902 72.6214 56.6576 71.5017V71.5226C56.6576 71.5226 56.7001 71.4592 56.7855 71.3114C56.956 71.0368 57.0625 
                70.8674 57.0625 70.8674V70.8257C57.7443 69.6421 59.279 66.9587 61.559 62.5004C64.4998 56.7534 67.3342 49.5696 67.3342 
                49.5696C67.3342 49.5696 67.5901 51.3232 68.4635 54.239C68.9753 55.9505 70.0401 57.831 70.8929 59.648C70.2111 60.5991 
                69.7847 61.127 69.7847 61.127L69.8061 61.1483C69.2518 61.8665 68.6554 62.6481 67.9946 63.4094C65.6716 66.1558 62.9017 
                69.3045 62.5178 70.2126C62.0699 71.2901 62.1769 72.0722 63.0296 72.7062C63.6475 73.1711 64.7553 73.234 65.885 73.1711C67.9735 
                73.0229 69.4437 72.5158 70.1681 72.1991C71.2978 71.7976 72.619 71.1846 73.8548 70.276C76.1353 68.6067 77.52 66.2192 
                77.3925 63.0714C77.3285 61.3386 76.7531 59.6059 76.0498 57.9787C76.2632 57.6833 76.4547 57.3874 76.6681 57.0915C80.2694 
                51.8724 83.0612 46.1462 83.0612 46.1462C83.0612 46.1462 83.3172 47.8998 84.1905 50.8161C84.6169 52.2951 85.4907 53.901 
                86.2575 55.4643C82.8693 58.1903 80.7808 61.3594 80.0349 63.4302C78.6927 67.2759 79.7365 69.0082 81.7185 69.4097C82.6134 
                69.6 83.8921 69.1772 84.8298 68.7757C86.0231 68.3956 87.4298 67.7408 88.7725 66.7684C91.0529 65.0995 93.2475 62.775 93.1195 
                59.6272C93.0555 58.1903 92.6721 56.7743 92.1392 55.4009C95.0161 54.2182 98.7243 53.563 103.455 54.1122C113.599 55.2953 115.602 
                61.5706 115.218 64.2123C114.835 66.8531 112.704 68.29 112.001 68.7336C111.297 69.1777 111.063 69.3254 111.127 69.6421C111.212 
                70.107 111.553 70.0862 112.15 70.0014C112.981 69.8537 117.478 67.8672 117.669 63.0075C117.989 56.7956 112.022 50.0132 101.473 
                50.0766ZM23.2215 76.2346C19.8542 79.8687 15.1662 81.2421 13.1417 80.0803C10.9682 78.8333 11.8205 73.4665 15.9546 69.6213C18.469 
                67.2759 21.7083 65.0991 23.8608 63.7683C24.3507 63.4724 25.0755 63.0501 25.9493 62.5217C26.0983 62.437 26.1838 62.3948 26.1838 
                62.3948L26.6952 62.0776C28.2079 67.5713 26.7592 72.4103 23.2215 76.2346ZM47.7285 59.7114C46.5563 62.543 44.1058 69.7903 42.6142 
                69.3888C41.3354 69.0508 40.5466 63.5571 42.3582 58.1269C43.2745 55.4009 45.2136 52.147 46.3433 50.8796C48.1759 48.8509 50.2005 
                48.1744 50.6904 48.9991C51.3087 50.0766 48.4529 57.9365 47.7285 59.7114ZM67.9521 69.3041C67.4617 69.5578 66.9933 69.7269 66.7798 
                69.6C66.6309 69.5153 66.9933 69.1772 66.9933 69.1772C66.9933 69.1772 69.5292 66.473 70.5305 65.2473C71.1063 64.5291 71.7877 63.684 
                72.5126 62.7329V63.0075C72.5126 66.2405 69.3583 68.4169 67.9516 69.3041H67.9521ZM83.5511 65.7756C83.1887 65.5219 83.2527 64.6768 
                84.4674 62.0355C84.9363 61.0001 86.0441 59.2678 87.9412 57.5985C88.1541 58.2746 88.3036 58.9298 88.2821 59.5424C88.2606 63.6205 
                85.3202 65.1417 83.5511 65.7756Z"
                fill="#CD6799"
            />
        </g>
        <defs>
            <clipPath id="clip0_13_2988">
                <rect
                    width="117"
                    height="87"
                    fill="white"
                    transform="translate(0.799988)"
                />
            </clipPath>
        </defs>
    </g>

    <g id="redux">
        <path
            d="M72.7792 69.5627C76.6509 69.1619 79.5882 65.8242 79.4546 61.8184C79.3214 57.8131 75.9833 54.6086 71.9779 
            54.6086H71.7111C67.5718 54.7422 64.3677 58.2135 64.5013 62.3525C64.6349 64.3553 65.4357 66.091 66.6374 67.2926C62.098 
            76.2385 55.1554 82.7807 44.7415 88.2549C37.6652 91.9934 30.3222 93.3287 22.9792 92.3943C16.971 91.593 12.298 88.923 
            9.3603 84.5164C5.08817 77.9742 4.68776 70.8975 8.29268 63.8213C10.8296 58.7475 14.8345 55.009 17.3714 53.1398C16.8374 
            51.4041 16.0361 48.4668 15.6357 46.3307C-3.72371 60.35 -1.72084 79.3094 4.15375 88.2549C8.55949 94.9311 17.505 99.0701 
            27.3849 99.0701C30.055 99.0701 32.7251 98.8029 35.3955 98.1357C52.4853 94.7975 65.4361 84.65 72.7792 69.5627ZM96.2775 
            53.0066C86.1304 41.1234 71.1771 34.5811 54.0873 34.5811H51.9513C50.7496 32.1779 48.2128 30.5754 45.4091 30.5754H45.1419C41.0033 
            30.709 37.7992 34.1803 37.9324 38.3197C38.066 42.325 41.4037 45.5295 45.4091 45.5295H45.6759C48.6132 45.3959 51.1501 43.5266 
            52.2181 40.9898H54.6214C64.7685 40.9898 74.3812 43.927 83.0599 49.6684C89.7353 54.0746 94.5419 59.816 97.2119 66.7586C99.4816 
            72.3664 99.348 77.8406 96.9447 82.5139C93.2066 89.5902 86.9316 93.4623 78.6537 93.4623C73.3132 93.4623 68.2398 91.8598 65.5693 
            90.6582C64.1009 91.9934 61.4304 94.1295 59.5611 95.4652C65.3025 98.1352 71.1771 99.6041 76.7845 99.6041C89.6017 99.6041 99.0812 
            92.5275 102.686 85.4512C106.558 77.707 106.291 64.3553 96.2775 53.0066ZM28.4529 71.832C28.5865 75.8377 31.9242 79.0418 35.9296 
            79.0418H36.1968C40.3357 78.9086 43.5398 75.4369 43.4062 71.2979C43.273 67.2922 39.9349 64.0881 35.9296 64.0881H35.6628C35.3955 
            64.0881 34.9947 64.0881 34.7283 64.2213C29.2542 55.1422 26.9845 45.2623 27.7857 34.5807C28.3193 26.5697 30.9898 19.6266 35.6628 
            13.8852C39.5345 8.94508 47.0111 6.5418 52.0849 6.40861C66.2369 6.14139 72.2447 23.7656 72.6455 30.8422C74.3812 31.2426 77.3185 
            32.1775 79.3214 32.8451C77.7189 11.2156 64.3677 0 51.5509 0C39.5345 0 28.4529 8.67869 24.0468 21.4963C17.9054 38.5865 21.9107 
            55.009 29.3874 67.9602C28.7201 68.8947 28.3193 70.3635 28.4529 71.8324V71.832Z"
            fill="#764ABC"
        />
    </g>

    <g id="next">
        <g>
            <path
                d="M119.616813,0.0688905149 C119.066276,0.118932037 117.314565,0.294077364 115.738025,0.419181169 C79.3775171,3.69690087 
                45.3192571,23.3131775 23.7481916,53.4631946 C11.7364614,70.2271045 4.05395894,89.2428829 1.15112414,109.384595 
                C0.12512219,116.415429 0,118.492153 0,128.025062 C0,137.557972 0.12512219,139.634696 1.15112414,146.665529 C8.10791789,194.730411 
                42.3163245,235.11392 88.7116325,250.076335 C97.0197458,252.753556 105.778299,254.580072 115.738025,255.680985 C119.616813,256.106338 
                136.383187,256.106338 140.261975,255.680985 C157.453763,253.779407 172.017986,249.525878 186.382014,242.194795 C188.584164,241.068861 
                189.00958,240.768612 188.709286,240.518404 C188.509091,240.36828 179.124927,227.782837 167.86393,212.570214 L147.393939,184.922273 
                L121.743891,146.965779 C107.630108,126.098464 96.0187683,109.034305 95.9186706,109.034305 C95.8185728,109.009284 95.7184751,125.873277 
                95.6684262,146.465363 C95.5933529,182.52028 95.5683284,183.971484 95.1178886,184.82219 C94.4672532,186.048207 93.9667644,186.548623 
                92.915738,187.099079 C92.114956,187.499411 91.4142717,187.574474 87.6355816,187.574474 L83.3063539,187.574474 L82.1552297,186.848872 
                C81.4044966,186.373477 80.8539589,185.747958 80.4785924,185.022356 L79.9530792,183.896422 L80.0031281,133.729796 L80.0782014,83.5381493 
                L80.8539589,82.5623397 C81.25435,82.0369037 82.1051808,81.3613431 82.7057674,81.0360732 C83.7317693,80.535658 84.1321603,80.4856165 
                88.4613881,80.4856165 C93.5663734,80.4856165 94.4172043,80.6857826 95.7434995,82.1369867 C96.1188661,82.5373189 110.007429,103.454675 
                126.623656,128.650581 C143.239883,153.846488 165.962072,188.250034 177.122972,205.139048 L197.392766,235.839522 L198.418768,235.163961 
                C207.502639,229.259062 217.112023,220.852086 224.719453,212.09482 C240.910264,193.504394 251.345455,170.835585 254.848876,146.665529 
                C255.874878,139.634696 256,137.557972 256,128.025062 C256,118.492153 255.874878,116.415429 254.848876,109.384595 C247.892082,61.3197135 
                213.683675,20.9362052 167.288368,5.97379012 C159.105376,3.32158945 150.396872,1.49507389 140.637341,0.394160408 C138.234995,0.143952798 
                121.693842,-0.131275573 119.616813,0.0688905149 L119.616813,0.0688905149 Z M172.017986,77.4831252 C173.219159,78.0836234 174.195112,79.2345784 
                174.545455,80.435575 C174.74565,81.0861148 174.795699,94.9976579 174.74565,126.348671 L174.670577,171.336 L166.73783,159.17591 L158.780059,147.01582 
                L158.780059,114.313685 C158.780059,93.1711423 158.880156,81.2862808 159.030303,80.7108033 C159.430694,79.3096407 160.306549,78.2087272 
                161.507722,77.5581875 C162.533724,77.0327515 162.909091,76.98271 166.837928,76.98271 C170.541544,76.98271 171.19218,77.0327515 172.017986,77.4831252 Z"
                fill="#000000"
            ></path>
        </g>
    </g>

    <g id="git">
        <g clip-path="url(#clip0_13_2984)">
            <path
                d="M103.62 47.8219L57.7758 1.98038C55.1372 -0.6598 50.8552 -0.6598 48.2134 1.98038L38.6937 11.5001L50.7699 23.5763C53.5762 22.6281 
                56.7943 23.2642 59.0313 25.5012C61.2789 27.7525 61.9106 30.9981 60.9393 33.8134L72.5775 45.452C75.3932 44.482 78.6421 45.1095 80.891 
                47.3621C84.034 50.5039 84.034 55.596 80.891 58.7399C77.7471 61.8841 72.655 61.8841 69.5095 58.7399C67.1454 56.3733 66.5613 52.9013 
                67.7582 49.9888L56.9046 39.1352L56.9034 67.6973C57.6902 68.0863 58.4088 68.6002 59.0313 69.2189C62.1743 72.3607 62.1743 77.4532 
                59.0313 80.5995C55.8874 83.7422 50.7929 83.7422 47.6535 80.5995C44.5105 77.4532 44.5105 72.3611 47.6535 69.2193C48.4067 68.4658 
                49.3019 67.869 50.2872 67.4635V38.6352C49.3004 38.2324 48.4048 37.6353 47.6535 36.8793C45.2722 34.5013 44.6996 31.0071 45.9198 
                28.0831L34.0154 16.1775L2.58106 47.6099C-0.0603455 50.2525 -0.0603455 54.5349 2.58106 57.1755L48.4259 103.018C51.0652 105.658 
                55.3464 105.658 57.9891 103.018L103.619 57.3884C106.26 54.747 106.26 50.4621 103.619 47.8219"
                fill="#DE4C36"
            />
        </g>
        <defs>
            <clipPath id="clip0_13_2984">
                <rect
                    width="105"
                    height="105"
                    fill="white"
                    transform="translate(0.600006)"
                />
            </clipPath>
        </defs>
    </g>

    <g id="storybook">
        <defs>
            <path
                d="M9.87245893,293.324145 L0.0114611411,30.5732167 C-0.314208957,21.8955842 6.33948896,14.5413918 15.0063196,13.9997149 L238.494389,0.0317105427 C247.316188,-0.519651867 254.914637,6.18486163 255.466,15.0066607 C255.486773,15.339032 255.497167,15.6719708 255.497167,16.0049907 L255.497167,302.318596 C255.497167,311.157608 248.331732,318.323043 239.492719,318.323043 C239.253266,318.323043 239.013844,318.317669 238.774632,318.306926 L25.1475605,308.712253 C16.8276309,308.338578 10.1847994,301.646603 9.87245893,293.324145 L9.87245893,293.324145 Z"
                id="path-1"
            ></path>
        </defs>
        <g>
            <mask id="mask-2" fill="white">
                <use xlink:href="#path-1"></use>
            </mask>
            <use fill="#FF4785" fill-rule="nonzero" xlink:href="#path-1"></use>
            <path
                d="M188.665358,39.126973 L190.191903,2.41148534 L220.883535,0 L222.205755,37.8634126 C222.251771,39.1811466 221.22084,40.2866846 219.903106,40.3327009 C219.338869,40.3524045 218.785907,40.1715096 218.342409,39.8221376 L206.506729,30.4984116 L192.493574,41.1282444 C191.443077,41.9251106 189.945493,41.7195021 189.148627,40.6690048 C188.813185,40.2267976 188.6423,39.6815326 188.665358,39.126973 Z M149.413703,119.980309 C149.413703,126.206975 191.355678,123.222696 196.986019,118.848893 C196.986019,76.4467826 174.234041,54.1651411 132.57133,54.1651411 C90.9086182,54.1651411 67.5656805,76.7934542 67.5656805,110.735941 C67.5656805,169.85244 147.345341,170.983856 147.345341,203.229219 C147.345341,212.280549 142.913138,217.654777 133.162291,217.654777 C120.456641,217.654777 115.433477,211.165914 116.024438,189.103298 C116.024438,184.317101 67.5656805,182.824962 66.0882793,189.103298 C62.3262146,242.56887 95.6363019,257.990394 133.753251,257.990394 C170.688279,257.990394 199.645341,238.303123 199.645341,202.663511 C199.645341,139.304202 118.683759,141.001326 118.683759,109.604526 C118.683759,96.8760922 128.139127,95.178968 133.753251,95.178968 C139.662855,95.178968 150.300143,96.2205679 149.413703,119.980309 Z"
                fill="#FFFFFF"
                fill-rule="nonzero"
                mask="url(#mask-2)"
            ></path>
        </g>
    </g>
</svg>
