<svg
    xmlns="http://www.w3.org/2000/svg"
    width="25"
    height="25"
    viewBox="0 0 25 25"
    fill="white"
>
    <g id="github">
        <path
            fill-rule="evenodd"
            clip-rule="evenodd"
            d="M12.5 0C5.59375 0 0 5.59375 0 12.5C0 18.0312 3.57812 22.7031 8.54688 24.3594C9.17188 24.4688 9.40625
                24.0938 9.40625 23.7656C9.40625 23.4688 9.39062 22.4844 9.39062 21.4375C6.25 22.0156 5.4375 20.6719 5.1875 
                19.9688C5.04688 19.6094 4.4375 18.5 3.90625 18.2031C3.46875 17.9688 2.84375 17.3906 3.89062 17.375C4.875 17.3594 
                5.57812 18.2812 5.8125 18.6562C6.9375 20.5469 8.73437 20.0156 9.45312 19.6875C9.5625 18.875 9.89062 18.3281 10.25 
                18.0156C7.46875 17.7031 4.5625 16.625 4.5625 11.8437C4.5625 10.4844 5.04688 9.35938 5.84375 8.48438C5.71875 8.17188 
                5.28125 6.89062 5.96875 5.17188C5.96875 5.17188 7.01562 4.84375 9.40625 6.45312C10.4062 6.17188 11.4687 6.03125 12.5312 
                6.03125C13.5937 6.03125 14.6562 6.17188 15.6562 6.45312C18.0469 4.82812 19.0938 5.17188 19.0938 5.17188C19.7812 6.89062 
                19.3438 8.17188 19.2188 8.48438C20.0156 9.35938 20.5 10.4687 20.5 11.8437C20.5 16.6406 17.5781 17.7031 14.7969 18.0156C15.25 
                18.4062 15.6406 19.1562 15.6406 20.3281C15.6406 22 15.625 23.3438 15.625 23.7656C15.625 24.0938 15.8594 24.4844 16.4844 
                24.3594C18.9658 23.5216 21.1221 21.9268 22.6496 19.7993C24.1772 17.6719 24.9993 15.119 25 12.5C25 5.59375 19.4062 0 12.5 0Z"
            
        />
    </g>

    <g id="linkedin">
        <path
            fill-rule="evenodd"
            clip-rule="evenodd"
            d="M0.041672 1.95624C0.041672 1.44846 0.243386 0.961482 0.602441 0.602428C0.961495 0.243373 1.44848 0.041659 1.95626 
                0.041659H21.0417C21.2933 0.0412481 21.5426 0.0904746 21.7752 0.18652C22.0077 0.282566 22.2191 0.423544 22.3971 
                0.601384C22.5752 0.779224 22.7164 0.990434 22.8127 1.22292C22.909 1.45541 22.9585 1.7046 22.9583 1.95624V21.0417C22.9586 
                21.2934 22.9093 21.5426 22.8131 21.7752C22.7169 22.0078 22.5759 22.2192 22.3979 22.3972C22.22 22.5752 22.0087 22.7164 21.7762 
                22.8127C21.5437 22.909 21.2944 22.9585 21.0427 22.9583H1.95626C1.70474 22.9583 1.45569 22.9088 1.22334 22.8125C0.99098 22.7162 
                0.779871 22.5751 0.602072 22.3972C0.424273 22.2193 0.283268 22.0081 0.187112 21.7757C0.0909564 21.5433 0.0415352 21.2942 0.041672 
                21.0427V1.95624ZM9.11251 8.77916H12.2156V10.3375C12.6635 9.44166 13.8094 8.63541 15.5313 8.63541C18.8323 8.63541 19.6146 10.4198 
                19.6146 13.6937V19.7583H16.274V14.4396C16.274 12.575 15.826 11.5229 14.6885 11.5229C13.1104 11.5229 12.4542 12.6573 12.4542 
                14.4396V19.7583H9.11251V8.77916ZM3.38334 19.6156H6.72501V8.63541H3.38334V19.6146V19.6156ZM7.20313 5.05416C7.20943 5.34028 7.15852 
                5.62477 7.05338 5.89095C6.94824 6.15712 6.791 6.39961 6.59087 6.60419C6.39075 6.80877 6.15178 6.97132 5.88798 7.08229C5.62418 
                7.19326 5.34088 7.25043 5.05469 7.25043C4.76851 7.25043 4.4852 7.19326 4.22141 7.08229C3.95761 6.97132 3.71864 6.80877 3.51851 
                6.60419C3.31839 6.39961 3.16114 6.15712 3.05601 5.89095C2.95087 5.62477 2.89996 5.34028 2.90626 5.05416C2.91862 4.49255 3.15041 
                3.95811 3.55197 3.56529C3.95353 3.17247 4.49295 2.95251 5.05469 2.95251C5.61644 2.95251 6.15585 3.17247 6.55742 3.56529C6.95898 
                3.95811 7.19076 4.49255 7.20313 5.05416Z"
            
        />
    </g>

    <g id="telegram">
        <path
            d="M18.9057 4.76449L16.3705 16.7208C16.1791 17.5644 15.6804 17.7745 14.9717 17.3772L11.1085 14.5305L9.24472 16.3235C9.0383 
                16.5299 8.86608 16.7022 8.46824 16.7022L8.74607 12.7681L15.9054 6.29885C16.2169 6.02162 15.8376 5.86741 15.4218 6.14524L6.57084 
                11.7186L2.76043 10.5257C1.93174 10.2671 1.91674 9.69701 2.93325 9.29917L17.837 3.55716C18.5271 3.29854 19.1308 3.71018 18.9057 
                4.76449Z"
            
        />
    </g>
</svg>
